<?xml version="1.0" encoding="UTF-8"?>
<svg version="1.1" viewBox="0 0 2048 2038" width="626" height="623" xmlns="http://www.w3.org/2000/svg">
<path transform="translate(0)" d="m0 0h2048v2038h-2048z" fill="#FEFEFE"/>
<path transform="translate(925,653)" d="m0 0h5l5 8 7 16 7 22 7 34 6 39v13l-8 8-8 7-5 5v6l8 16 12 16 9 9 12 9 14 11 13 11 11 8 7 1 9-7 11-9 17-13 11-10 9-7 12-15 10-16 2-5-1-5-21-21v-11l6-40 6-28 9-29 6-17 4-6 7 1 26 13 24 14 14 10 21 16 13 11 10 8 11 11 11 14 10 13 13 18 8 13 12 22 10 22 9 25 8 28 6 29 3 28 1 17 1 180 1 28 1 8 1 21v13l-23 11-27 14-5 3v12l6 67 3 24v19l-9 13-12 16-14 19-9 12-10 13-16 21-14 19-16 21-24 32-13 16-12 16-10 13-13 16-5 6h-3v-369l21-13 16-10 42-24 38-24 15-9 25-14 2-1 1-3v-74l-36 12-35 13-35 14-36 14-25 9-41 17-10 3 2 6 2 18 10 52 5 24 7 36v5l-8 5-6 8-10 9-7 8-13 13-9 7-4 1-12-9-8-8-8-7-11-11-7-8-6-7-3-5v-9l7-29 13-65 5-28-1-5-15-7-17-6-38-15-25-9-36-15-55-21-26-8-4-1v76l18 10 28 17 27 16 14 9 14 8 13 8 28 17 11 8 3 3 3 9 1 360-4-2-8-9-11-14-13-17-9-12-28-36-13-18-16-21-12-16-14-19-16-21-13-18-14-19-9-12-1-4v-10l3-26 4-32 3-36v-14l-26-14-29-14v-77l2-21 1-141 1-24 4-31 5-24 7-27 9-27 11-25 11-21 13-21 11-15 8-10 11-14 22-22 13-10 14-11 18-13 14-9 16-9 21-10z" fill="#C4C4C4"/>
<path transform="translate(1e3 432)" d="m0 0h25l1 1 8 1 52 1 26 6 21 7 18 8-1 9-13 40-2 8v6l10-18 4-1 2 6 2 8 1 25v37l-1 18-7 38-5 22-6-2-11-5-3-1h-9l-6 7-7 17-7 22-6 25-6 33-4 27v8l7 9 11 9 5 4-1 7-5 9-7 9-9 10-13 12-14 11-10 8-16 11-5-1-14-11-3-2v-2l-5-2-9-8-10-8-12-11-9-10-9-14-2-8 8-7 9-7 3-5v-30l-4-24-4-22-6-26-8-22-9-17-1-1-11-1-2-7-2-12-4-47-4-32-6-35-8-36-5-19 1-3 30-10 30-7 15-2 28-2z" fill="#C4C4C4"/>
<path transform="translate(943,579)" d="m0 0h2l6 14 8 26 7 28 7 33 7 42 5 42v5h78l1-12 7-50 7-41 8-38 10-36 4-9 3-1-2 16-11 55-7 36-5 32-5 57h-94l-3-6-7-54-8-49-11-53-7-33z" fill="#fff"/>
</svg>
