<?xml version="1.0" encoding="UTF-8"?>
<svg version="1.1" viewBox="0 0 2048 2038" width="626" height="623" xmlns="http://www.w3.org/2000/svg">
<path transform="translate(0)" d="m0 0h2048v2038h-2048z" fill="#FDFDFD"/>
<path transform="translate(923,654)" d="m0 0h8l10 20 5 18 4 14 2 6 1 10 2 2 1 17 2 2 2 22 1 1 1 16-4 6-15 14-3 3v5l8 15 3 6 1 3h2l3 6 13 13 7 4 9 9 5 2 10 10 6 3 10 10 2 1h10l8-7 5-5 7-4 7-6 5-3 13-13 5-2 10-10 2-5 7-7 3-6 4-5 4-10-3-6-7-7-3-2v-2l-4-2-6-7v-13l3-9 1-18h2l1-19 2-2 1-10 2-2 2-12 2-4 2-7 1-1 1-7 2-2 2-9 2-5 2-6 4-3 10 1 10 6 8 5 17 8 9 5 4 4 5 2 7 7 6 3 8 7 9 6 10 10 8 5 18 18 6 9 7 9 8 10 6 9 6 8 5 9 6 10 13 26 6 16 11 32 5 22 2 7 1 9 2 4 1 25 2 3 1 232 3 1v33l-19 10-34 17-2 2v24l2 2 1 33 2 6 2 28 2 3v24l-4 9-8 9-4 7-6 6-4 7-6 7-4 7-7 9-3 4h-2l-2 4-6 9-5 5-3 6-7 8-3 5-7 8-4 7-6 7-3 5-6 6-3 6-7 7-2 5-8 9-4 7-4 4h-2l-2 4-5 8-6 6-2 5-7 7-3 6-7 7-4 5-4 7-7 7-3-1 1-368 11-7 4-3 15-9 13-8 15-8 13-8 11-6 11-7 10-7 17-10 15-9 8-5 15-8 1-1v-71l-2-6-14 6-7 2-9 3-16 6-9 3-3 2-8 2-11 5-11 4-3 2-9 3-8 4-7 2-8 4-9 3-9 4-9 1-3 2-9 3-14 7-8 2-11 5-11 4-3 2-7 2v5h2l1 18 2 6 2 14 2 4 1 12 2 3 1 12 2 4 2 15 2 6 1 10 2 3 1 13 2 2v14l-6 3-2 2-2 5-4 4-4 1-1 5-6 1-2 6-5 6-6 5-9 9-5 2-5 1-9-6-12-11-13-13v-2l-3-1v-2l-3-1-4-4v-2l-3-1-6-10v-15h2l1-12 2-2 1-14 2-2 2-15 2-5 1-11 2-3 1-14 2-1 1-14 1-2h2v-14l2-6 1-5-5-4-15-7-8-1-9-5-7-1-5-3-6-3-7-2-8-4-7-2-10-3-4-2-7-2-14-7-9-3-8-4-7-2-8-4-9-3-9-2-9-5-9-3-9-4-14-4-4-2-12-1 1 74 8 5 9 5 3 3 12 6 5 4 8 4 5 3 3 3 5 2 6 3 6 5 5 2v2l22 11 5 4 6 3 4 4 5 2 6 3 6 5 11 5 6 5 5 3 5 5 1 9h2v359l-4-2-8-9-4-6-9-10-6-9-7-9-9-12-7-8-10-14-5-6-6-8-8-11-15-20-7-9-8-11-4-5-6-8-8-11-6-8-7-9-9-12-11-16-9-12-6-9v-29l2-3 1-19 2-3 2-31 2-4v-32l-8-5-42-21-5-2v-83l3-1 1-179 1-1 1-7 1-21 2-5 2-13 4-14 2-11 2-5 2-9 6-19 5-11 4-10 14-28 6-9 5-9 4-5 3-5 6-6 4-8 5-5h2l5-10 26-26 9-6 10-9 9-6 6-5 5-3 7-6 14-8 8-5 22-11z" fill="#1B1B1B"/>
<path transform="translate(999,432)" d="m0 0h27l2 2 58 1 21 5 19 5 16 6 9 4 1 3-2 10-3 9-6 19-3 9-2 5-1 10h3l3-9 6-11 4 1 2 12 2 6v41l-1 35-2 7-1 12-2 4-2 13-1 2-2 14-3 7-18-9h-9l-7 6-4 10-2 6-3 10-4 10-2 9-2 5-1 10-2 4-2 14-1 1-2 19h-2l-1 22-2 3v13l17 17 5 2v6l-9 17-25 25-9 6-11 10-7 4-7 6-5 3-5-1-8-5-10-9-9-6-7-7-9-6-21-21-8-15v-8l4-3 6-3 8-8 1-15v-24h-2l-2-18-2-4-1-15-2-3-2-15-6-21-15-30-1-1-12-1-2-16-1-1-1-10-1-28-2-1-1-28-2-2-1-22h-2l-2-16-2-6-1-12-2-5-2-10-1-1-2-11-2-7-1-7-2-2 1-4 16-7 14-4 18-4 8-2 8-1 1-1 8-1 30-1z" fill="#1B1B1B"/>
<path transform="translate(942,579)" d="m0 0 4 1 3 5 2 7 8 24 2 9 3 12 3 13 1 1 2 15 2 6 1 10 2 4 2 17 1 1 2 18 1 1 1 8v21h2l1 3v13h78v-11l1-2h2v-24l1-2h2v-14l1-8 2-7 1-12 2-4 1-15 2-3 2-15 1-1 2-11 2-7 1-9 2-3 2-9h2v-9l3-9 5-11 3 1v9l-2 7-2 15-2 7-1 9-2 3-1 12-2 4-2 11-2 6-1 10-2 3-1 14-2 5-2 21-1 1-1 16v11l-3 3v21l-1 7-1 1h-85l-9-1-3-7-2-25-1-1-1-7-1-17-2-7-2-14-3-19-1-1-2-15-2-7-1-9-2-4-2-13-2-10-4-19-2-6-1-10-2-4z" fill="#FEFEFE"/>
</svg>
