<?xml version="1.0" encoding="UTF-8"?>
<svg version="1.1" viewBox="0 0 2000 2000" width="500" height="500" xmlns="http://www.w3.org/2000/svg">
<path transform="translate(0)" d="m0 0h2e3v2e3h-2e3z" fill="#1B1A1A"/>
<path transform="translate(907,641)" d="m0 0 4 2 3 5 8 18 8 28 7 36 3 21 1 18-2 5-9 8-10 8-1 4 9 19 7 9 9 10 10 9 14 11 11 9 14 11 7 5 5-1 9-8 14-10 15-12 11-9 12-12 8-11 9-15 1-4-3-6-13-12-6-6v-10l5-35 5-26 7-25 9-26 4-8 6 1 16 8 26 14 16 10 27 21 10 8 15 14 13 13 8 10 15 20 12 18 13 23 14 32 9 27 7 29 4 24 2 24 1 27 1 62 1 167-19 10-19 9-13 7h-2l2 31 4 45 4 31 1 3v8l-12 17-14 18-12 17-7 10h-2l-2 5-11 14-33 44-13 17-10 13-13 17-10 13-14 18-10 13-9 11-5 5-1-1v-347l1-15 10-7 17-10 15-9 27-16 9-5 19-12 40-24 17-10 1-6v-28l-1-41-34 12-23 9-16 6-31 12-14 6-11 4-9 4-11 2v2l-9 2v2l-9 2-14 6-16 6-10 5h-4l2 17 10 52 8 40 4 18v10l-3 4h-2l-2 4h-2l-2 4-4 4h-2l-2 4-4 4h-2l-2 4-12 12-8 7-7 6-5-3-10-10-8-7-8-8v-2h-2l-4-4v-2h-2v-2l-4-2-11-12v-15l8-39 11-55 2-12 3-16-15-5v-2h-7l-9-4-13-5-3-2-6-2-15-6-7-3-10-3-9-3-16-7-10-4-28-11-19-7-11-5-19-7-15-5-1 74 5 4 18 10 28 17 15 9 15 10 22 12 9 6 11 7 27 16 5 5 1 36v326l-6-5-15-20-9-11-12-16-8-10-14-18-14-19-13-17-36-48-7-9-10-14-12-16-20-28-2-7 4-28 3-23 4-43 1-18-24-12-23-11-6-4-1-1v-32l1-123 1-80 2-27 3-25 5-25 7-27 9-26 9-20 12-23 10-16 8-12 11-14 8-10 11-12 18-18 11-9 15-12 13-9 20-12 18-10z" fill="#FEFEFE"/>
<path transform="translate(984,426)" d="m0 0 57 1 16 1 27 5 17 5 13 5 12 6 1 1v6l-7 19-8 26-2 8v4l11-20 5-1 2 7 2 26v39l-2 28-2 11-1 2h-2l1 8-5 24-1 6-5-1-14-7-7-1-6 3-8 16-10 30-7 34-7 48 1 9 10 10 9 7 3 4-2 5-9 14-11 12-12 11-11 9-17 13-12 9-5-1-16-13-14-11-16-13-13-13-9-14-2-5v-6l9-8 8-7 2-4v-20l-7-46-6-28-7-21-10-21-3-3-12 2-1-3-2-35-4-39-6-40-5-26-7-30-3-11 1-4 13-6 17-5 19-5 24-4z" fill="#FEFEFE"/>
<path transform="translate(962,424)" d="m0 0h72l24 1 17 3 14 3 15 4 17 7 9 5 2 3v8l-6 18-3 11 8 1 1 4 1 15 2 2 1 16v47l-1 11-2 3-2 21-2 2-2 17-2 4-1 16-3 4 16 8 15 8 10 7 13 10 16 12 6 4 30 30 5 8 8 10 4 6 8 10 18 30 5 9 4 11 7 15 7 19 2 3 2 12 2 4 2 13 2 2 2 17 2 4 2 31 2 4 1 61v190l4 1v2l-10 8-16 8-21 10-8 4h-2l1 31 3 1 1 28 1 13 2 3 2 30 2 2 1 8-7 8-4 5-6 9-6 7-6 9-6 7-6 9-7 11-7 8-6 9-7 7-10 15-8 11-9 10-6 9-6 8-7 10-8 11-6 8-7 9-8 9-6 9-6 7-6 9-10 11-6 9-6 5h-5v-371l9-8 10-6 8-5 13-8 19-10 8-4 9-3 11-9 7-4 5-4 12-6 8-6 12-6 8-6 14-7 3-4 1-67-15 6-20 7-24 9-15 6-13 6-23 9-40 16-12 5-9 3-11 4-20 9-3 2v10l2 6 1 2 2 16 2 3 2 17 2 3 2 17 2 3 2 16 2 4 2 12 2 4 1 21-53 53-2 1h-6l-8-7-46-46-1-5v-11l1-10 2-5 2-11 2-6 2-14 2-5 2-15 3-9 1-7 2-5 2-19 3-5v-7l-8-5-10-4-6-2-11-5-9-3-11-5-9-3-14-6-17-5-16-8-15-6-12-5-13-5-7-3-11-4-6-2-15-6-11-4h-3v68l5 2 11 7 19 11 8 5 13 8 10 7 10 8 14 7 9 2 8 6 13 7 9 6 12 7 14 9 1 2v68l-1 302-2 1-6-4-8-8-7-10-12-14-6-9-7-9-8-10-7-8-6-9-7-9-10-15-10-13-7-9-10-14-7-9-10-13-8-11-6-8-10-13-8-11-14-20-7-9-4-4v-9l2-5 2-21v-9l2-2 1-5 1-25 3-3 1-17v-20l-44-22-12-5v-34l3-2 1-229 2-2 3-27 1-1 3-19 5-18 3-14 5-10 7-21 9-19 10-18 5-8 6-10 7-10 7-9h2l2-4 3-4 3-5 39-39 6-3 13-12 10-6 8-5 13-8 19-10 13-7-1-44-3-2-1-32-3-5-1-22-1-8-1-1-3-22-5-18-6-23-3-9v-10l51-16 20-3 3-1zm22 2-36 2-28 5-20 5-19 7-6 3-1 4 7 27 7 34 6 39 3 26 3 32 1 23 1 3 12-2 4 5 11 24 6 20 6 30 6 40v20l-4 6-9 8-6 5 1 9 7 12 11 12 8 8 14 11 16 13 13 10 5 1 13-10 16-12 15-13 8-7 8-8 7-10 7-11-2-4-5-5-13-12-3-5 1-13 6-41 7-34 10-30 8-16 6-3 10 2 13 7h3l5-26 1-9-1-3h2l2-6 2-16 1-19v-39l-2-26-2-7-5 1-11 20 1-8 7-24 9-25v-6l-8-5-15-6-16-5-25-5-6-1-16-1zm-77 215-13 6-16 8-18 10-14 9-16 12-16 13-12 11-18 18-8 10-11 14-9 13-10 16-9 16-12 25-10 28-7 25-5 25-3 20-2 20-1 17-1 80-1 123v32l5 4 22 11 23 11 4 3-3 41-4 34-4 30-1 8 4 8 14 19 10 14 66 88 16 21 14 19 10 12 9 12 13 17 14 18 7 8h1v-329l-1-33-5-5-24-14-16-10-11-7-10-6-11-6-14-9-13-8-20-12-19-11-10-6-2-3 1-73 15 5 21 8 15 6 31 12 20 8 11 5 13 4 6 3 6 2 21 8 12 5 16 6 3 2h7l1 2 12 5h2l-3 16-8 43-9 43-4 20v15l7 7 6 7h2v2h2v2l4 4h2l2 4 12 12 16 14 5-3 9-9 8-7 8-8v-2l3-1 5-5v-2l4-2 4-4v-2l4-2v-2h2l3-4v-10l-8-37-11-57-4-21-1-12 6-1 20-9 14-5 6-3 7-1v-2l9-2v-2l11-2 9-4 18-7 50-20 17-6 15-6 26-9 3-1 1 41v30l-2 5-20 11-13 8-28 17-19 12-16 9-27 16-13 8-16 10-1 1-1 19v343h3l11-14 10-12 12-16 11-14 15-20 11-14 12-16 10-13 36-48v-2h2l13-19 14-18 14-19 4-6v-8l-2-9-4-35-3-35-2-31 6-2 19-10 23-11 5-3-1-167-1-62-1-27-3-32-6-29-7-26-8-22-13-29-13-23-14-20-13-17-11-13-18-18-8-7-10-8-21-16-15-10-24-13-16-9-9-4h-4l-6 13-10 31-6 25-6 35-2 16v10l4 5 16 14 2 6-6 12-9 13-11 12-13 12-12 9-26 20-4 3-4-1-11-8-11-9-14-11-13-11-12-11-8-10-8-15-3-9 5-5 16-14 1-10-3-26-5-29-6-25-7-22-7-16-4-4z"/>
<path transform="translate(922,568)" d="m0 0 3 2 4 12 7 22 7 26 8 38 8 48 4 37v2h77l2-14 5-41 9-53 8-35 5-17 4-14 4-10h2l-1 10-7 36-10 48-6 36-5 43-1 19-1 1-91-1-2-3-2-22-4-32-5-30-15-75-7-30z"/>
</svg>
